<svg xmlns="http://www.w3.org/2000/svg" xmlns:xlink="http://www.w3.org/1999/xlink" width="500" zoomAndPan="magnify" viewBox="0 0 375 374.999991" height="500" preserveAspectRatio="xMidYMid meet" version="1.0"><defs><clipPath id="d17a30d97d"><path d="M 112.5 112.5 L 262.5 112.5 L 262.5 262.5 L 112.5 262.5 Z M 112.5 112.5 " clip-rule="nonzero"/></clipPath><clipPath id="e7dad1c79b"><path d="M 0 0 L 6.761719 0 L 6.761719 375 L 0 375 Z M 0 0 " clip-rule="nonzero"/></clipPath><clipPath id="9eb1942c82"><path d="M 368.238281 0 L 375 0 L 375 375 L 368.238281 375 Z M 368.238281 0 " clip-rule="nonzero"/></clipPath><clipPath id="f63a43c505"><path d="M 0 0 L 375 0 L 375 6.761719 L 0 6.761719 Z M 0 0 " clip-rule="nonzero"/></clipPath><clipPath id="ee97bd0be2"><path d="M 0 368.234375 L 375 368.234375 L 375 375 L 0 375 Z M 0 368.234375 " clip-rule="nonzero"/></clipPath></defs><g clip-path="url(#d17a30d97d)"><path fill="#000000" d="M 187.5 112.5 C 186.273438 112.5 185.046875 112.53125 183.820312 112.589844 C 182.59375 112.652344 181.371094 112.742188 180.148438 112.859375 C 178.925781 112.980469 177.710938 113.132812 176.496094 113.3125 C 175.28125 113.492188 174.070312 113.703125 172.867188 113.941406 C 171.664062 114.179688 170.46875 114.449219 169.277344 114.746094 C 168.085938 115.046875 166.902344 115.375 165.730469 115.730469 C 164.554688 116.085938 163.390625 116.46875 162.234375 116.882812 C 161.078125 117.296875 159.933594 117.738281 158.796875 118.210938 C 157.664062 118.679688 156.542969 119.175781 155.433594 119.699219 C 154.324219 120.226562 153.226562 120.777344 152.144531 121.355469 C 151.0625 121.933594 149.996094 122.539062 148.941406 123.171875 C 147.890625 123.800781 146.851562 124.457031 145.832031 125.140625 C 144.8125 125.820312 143.808594 126.527344 142.824219 127.257812 C 141.835938 127.992188 140.871094 128.746094 139.921875 129.523438 C 138.972656 130.304688 138.042969 131.105469 137.132812 131.929688 C 136.222656 132.753906 135.335938 133.597656 134.46875 134.46875 C 133.597656 135.335938 132.753906 136.222656 131.929688 137.132812 C 131.105469 138.042969 130.304688 138.972656 129.523438 139.921875 C 128.746094 140.871094 127.992188 141.835938 127.257812 142.824219 C 126.527344 143.808594 125.820312 144.8125 125.140625 145.832031 C 124.457031 146.851562 123.800781 147.890625 123.171875 148.941406 C 122.539062 149.996094 121.933594 151.0625 121.355469 152.144531 C 120.777344 153.226562 120.226562 154.324219 119.699219 155.433594 C 119.175781 156.542969 118.679688 157.664062 118.210938 158.796875 C 117.738281 159.933594 117.296875 161.078125 116.882812 162.234375 C 116.46875 163.390625 116.085938 164.554688 115.730469 165.730469 C 115.375 166.902344 115.046875 168.085938 114.746094 169.277344 C 114.449219 170.46875 114.179688 171.664062 113.941406 172.867188 C 113.703125 174.070312 113.492188 175.28125 113.3125 176.496094 C 113.132812 177.710938 112.980469 178.925781 112.859375 180.148438 C 112.742188 181.371094 112.652344 182.59375 112.589844 183.820312 C 112.53125 185.046875 112.5 186.273438 112.5 187.5 C 112.5 188.726562 112.53125 189.953125 112.589844 191.179688 C 112.652344 192.40625 112.742188 193.628906 112.859375 194.851562 C 112.980469 196.074219 113.132812 197.289062 113.3125 198.503906 C 113.492188 199.71875 113.703125 200.929688 113.941406 202.132812 C 114.179688 203.335938 114.449219 204.53125 114.746094 205.722656 C 115.046875 206.914062 115.375 208.097656 115.730469 209.269531 C 116.085938 210.445312 116.46875 211.609375 116.882812 212.765625 C 117.296875 213.921875 117.738281 215.066406 118.210938 216.203125 C 118.679688 217.335938 119.175781 218.457031 119.699219 219.566406 C 120.226562 220.675781 120.777344 221.773438 121.355469 222.855469 C 121.933594 223.9375 122.539062 225.003906 123.171875 226.058594 C 123.800781 227.109375 124.457031 228.148438 125.140625 229.167969 C 125.820312 230.1875 126.527344 231.191406 127.257812 232.175781 C 127.992188 233.164062 128.746094 234.128906 129.523438 235.078125 C 130.304688 236.027344 131.105469 236.957031 131.929688 237.867188 C 132.753906 238.777344 133.597656 239.664062 134.46875 240.53125 C 135.335938 241.402344 136.222656 242.246094 137.132812 243.070312 C 138.042969 243.894531 138.972656 244.695312 139.921875 245.476562 C 140.871094 246.253906 141.835938 247.007812 142.824219 247.742188 C 143.808594 248.472656 144.8125 249.179688 145.832031 249.859375 C 146.851562 250.542969 147.890625 251.199219 148.941406 251.828125 C 149.996094 252.460938 151.0625 253.066406 152.144531 253.644531 C 153.226562 254.222656 154.324219 254.773438 155.433594 255.300781 C 156.542969 255.824219 157.664062 256.320312 158.796875 256.789062 C 159.933594 257.261719 161.078125 257.703125 162.234375 258.117188 C 163.390625 258.527344 164.554688 258.914062 165.730469 259.269531 C 166.902344 259.625 168.085938 259.953125 169.277344 260.253906 C 170.46875 260.550781 171.664062 260.820312 172.867188 261.058594 C 174.070312 261.296875 175.28125 261.507812 176.496094 261.6875 C 177.710938 261.867188 178.925781 262.019531 180.148438 262.140625 C 181.371094 262.257812 182.59375 262.347656 183.820312 262.410156 C 185.046875 262.46875 186.273438 262.5 187.5 262.5 C 188.726562 262.5 189.953125 262.46875 191.179688 262.410156 C 192.40625 262.347656 193.628906 262.257812 194.851562 262.140625 C 196.074219 262.019531 197.289062 261.867188 198.503906 261.6875 C 199.71875 261.507812 200.929688 261.296875 202.132812 261.058594 C 203.335938 260.820312 204.53125 260.550781 205.722656 260.253906 C 206.914062 259.953125 208.097656 259.625 209.269531 259.269531 C 210.445312 258.914062 211.609375 258.527344 212.765625 258.117188 C 213.921875 257.703125 215.066406 257.261719 216.203125 256.789062 C 217.335938 256.320312 218.457031 255.824219 219.566406 255.300781 C 220.675781 254.773438 221.773438 254.222656 222.855469 253.644531 C 223.9375 253.066406 225.003906 252.460938 226.058594 251.828125 C 227.109375 251.199219 228.148438 250.542969 229.167969 249.859375 C 230.1875 249.179688 231.191406 248.472656 232.175781 247.742188 C 233.164062 247.007812 234.128906 246.253906 235.078125 245.476562 C 236.027344 244.695312 236.957031 243.894531 237.867188 243.070312 C 238.777344 242.246094 239.664062 241.402344 240.53125 240.53125 C 241.402344 239.664062 242.246094 238.777344 243.070312 237.867188 C 243.894531 236.957031 244.695312 236.027344 245.476562 235.078125 C 246.253906 234.128906 247.007812 233.164062 247.742188 232.175781 C 248.472656 231.191406 249.179688 230.1875 249.859375 229.167969 C 250.542969 228.148438 251.199219 227.109375 251.828125 226.058594 C 252.460938 225.003906 253.066406 223.9375 253.644531 222.855469 C 254.222656 221.773438 254.773438 220.675781 255.300781 219.566406 C 255.824219 218.457031 256.320312 217.335938 256.789062 216.203125 C 257.261719 215.066406 257.703125 213.921875 258.117188 212.765625 C 258.527344 211.609375 258.914062 210.445312 259.269531 209.269531 C 259.625 208.097656 259.953125 206.914062 260.253906 205.722656 C 260.550781 204.53125 260.820312 203.335938 261.058594 202.132812 C 261.296875 200.929688 261.507812 199.71875 261.6875 198.503906 C 261.867188 197.289062 262.019531 196.074219 262.140625 194.851562 C 262.257812 193.628906 262.347656 192.40625 262.410156 191.179688 C 262.46875 189.953125 262.5 188.726562 262.5 187.5 C 262.5 186.273438 262.46875 185.046875 262.40625 183.820312 C 262.34375 182.59375 262.253906 181.371094 262.132812 180.152344 C 262.011719 178.929688 261.859375 177.710938 261.679688 176.5 C 261.496094 175.285156 261.289062 174.078125 261.046875 172.875 C 260.808594 171.667969 260.539062 170.472656 260.238281 169.28125 C 259.9375 168.09375 259.613281 166.910156 259.253906 165.738281 C 258.898438 164.5625 258.511719 163.398438 258.097656 162.242188 C 257.683594 161.085938 257.242188 159.941406 256.773438 158.808594 C 256.300781 157.675781 255.804688 156.554688 255.277344 155.445312 C 254.753906 154.335938 254.203125 153.242188 253.625 152.160156 C 253.042969 151.078125 252.4375 150.011719 251.808594 148.957031 C 251.175781 147.90625 250.519531 146.871094 249.839844 145.847656 C 249.15625 144.828125 248.449219 143.824219 247.71875 142.839844 C 246.988281 141.855469 246.234375 140.886719 245.453125 139.941406 C 244.675781 138.992188 243.875 138.0625 243.050781 137.152344 C 242.226562 136.242188 241.378906 135.355469 240.511719 134.488281 C 239.644531 133.621094 238.757812 132.773438 237.847656 131.949219 C 236.9375 131.125 236.007812 130.324219 235.058594 129.546875 C 234.113281 128.765625 233.144531 128.011719 232.160156 127.28125 C 231.175781 126.550781 230.171875 125.84375 229.152344 125.160156 C 228.128906 124.480469 227.09375 123.824219 226.042969 123.191406 C 224.988281 122.5625 223.921875 121.957031 222.839844 121.375 C 221.757812 120.796875 220.664062 120.246094 219.554688 119.722656 C 218.445312 119.195312 217.324219 118.699219 216.191406 118.226562 C 215.058594 117.757812 213.914062 117.316406 212.757812 116.902344 C 211.601562 116.488281 210.4375 116.101562 209.261719 115.746094 C 208.089844 115.386719 206.90625 115.0625 205.71875 114.761719 C 204.527344 114.460938 203.332031 114.191406 202.125 113.953125 C 200.921875 113.710938 199.714844 113.503906 198.5 113.320312 C 197.289062 113.140625 196.070312 112.988281 194.847656 112.867188 C 193.628906 112.746094 192.40625 112.65625 191.179688 112.59375 C 189.953125 112.53125 188.726562 112.5 187.5 112.5 Z M 224.855469 190.644531 L 167.714844 220.714844 C 167.191406 220.945312 166.644531 221.0625 166.070312 221.070312 C 165.402344 221.085938 164.785156 220.917969 164.214844 220.570312 C 163.679688 220.246094 163.257812 219.808594 162.953125 219.261719 C 162.648438 218.714844 162.496094 218.125 162.5 217.5 L 162.5 157.5 C 162.496094 156.875 162.648438 156.285156 162.953125 155.738281 C 163.257812 155.191406 163.679688 154.753906 164.214844 154.429688 C 164.757812 154.125 165.339844 153.96875 165.964844 153.96875 C 166.585938 153.96875 167.171875 154.125 167.714844 154.429688 L 224.855469 184.5 C 225.457031 184.792969 225.933594 185.222656 226.285156 185.789062 C 226.640625 186.359375 226.816406 186.976562 226.816406 187.644531 C 226.816406 188.3125 226.640625 188.929688 226.285156 189.496094 C 225.933594 190.0625 225.457031 190.492188 224.855469 190.785156 Z M 224.855469 190.644531 " fill-opacity="1" fill-rule="nonzero"/></g><g clip-path="url(#e7dad1c79b)"><path fill="#000000" d="M 0 0 L 6.761719 0 L 6.761719 374.988281 L 0 374.988281 Z M 0 0 " fill-opacity="1" fill-rule="nonzero"/></g><g clip-path="url(#9eb1942c82)"><path fill="#000000" d="M 368.238281 0 L 375 0 L 375 374.988281 L 368.238281 374.988281 Z M 368.238281 0 " fill-opacity="1" fill-rule="nonzero"/></g><g clip-path="url(#f63a43c505)"><path fill="#000000" d="M 0 6.761719 L 0 0 L 374.988281 0 L 374.988281 6.761719 Z M 0 6.761719 " fill-opacity="1" fill-rule="nonzero"/></g><g clip-path="url(#ee97bd0be2)"><path fill="#000000" d="M 0 375 L 0 368.234375 L 374.988281 368.234375 L 374.988281 375 Z M 0 375 " fill-opacity="1" fill-rule="nonzero"/></g></svg>